<svg width="152" height="80" viewBox="0 0 152 80" fill="none" xmlns="http://www.w3.org/2000/svg">
<path d="M0 0H152V80H0V0Z" fill="black"/>
<path d="M32.3527 54.44C30.9127 54.44 29.6193 54.32 28.4727 54.08C27.326 53.84 26.046 53.52 24.6327 53.12C23.6993 52.8533 23.0727 52.7067 22.7527 52.68L23.1127 45.28H26.3527L27.2327 50.44C27.5793 50.8133 28.1927 51.1467 29.0727 51.44C29.9793 51.7333 31.006 51.88 32.1527 51.88C33.9393 51.88 35.2727 51.4933 36.1527 50.72C37.0593 49.92 37.5127 48.8133 37.5127 47.4C37.5127 46.4667 37.246 45.6667 36.7127 45C36.1793 44.3067 35.446 43.6933 34.5127 43.16C33.5793 42.6 32.2993 41.96 30.6727 41.24C28.4593 40.2267 26.6193 39.0267 25.1527 37.64C23.7127 36.2267 22.9927 34.32 22.9927 31.92C22.9927 30.4267 23.3793 29.08 24.1527 27.88C24.926 26.6533 26.0727 25.6933 27.5927 25C29.1393 24.28 31.0193 23.92 33.2327 23.92C34.5393 23.92 35.686 24.0133 36.6727 24.2C37.686 24.3867 38.7793 24.64 39.9527 24.96C40.646 25.1467 41.166 25.2667 41.5127 25.32L41.2727 32.32H38.0727L37.2327 27.4C36.9927 27.16 36.5127 26.9333 35.7927 26.72C35.0727 26.48 34.2727 26.36 33.3927 26.36C31.7927 26.36 30.5793 26.7333 29.7527 27.48C28.9527 28.2 28.5527 29.1733 28.5527 30.4C28.5527 31.3867 28.846 32.24 29.4327 32.96C30.046 33.68 30.7793 34.2933 31.6327 34.8C32.486 35.28 33.8327 35.9733 35.6727 36.88C37.166 37.6 38.446 38.3067 39.5127 39C40.5793 39.6933 41.4993 40.6 42.2727 41.72C43.046 42.8133 43.4327 44.1067 43.4327 45.6C43.4327 47.0667 43.0593 48.4667 42.3127 49.8C41.5927 51.1333 40.3927 52.24 38.7127 53.12C37.0593 54 34.9393 54.44 32.3527 54.44ZM48.2142 24.76L45.3342 24.24V22.08L52.6942 21.2H52.7742L53.8542 21.96V40.96L53.7342 43.08L61.8942 34.52L58.9342 34.08V31.8H69.3742V34.08L66.1342 34.6L61.2142 39.32L68.2142 51.28L70.4142 51.6V54H59.8542V51.6L61.8942 51.24L57.3342 42.8L53.7342 46.44L53.8142 48.48V51.24L56.3342 51.6V54H45.8942V51.6L48.2142 51.24V24.76ZM76.2905 28.12C75.3305 28.12 74.5705 27.84 74.0105 27.28C73.4505 26.72 73.1705 26 73.1705 25.12C73.1705 24.1067 73.4905 23.2667 74.1305 22.6C74.7705 21.9333 75.6238 21.6 76.6905 21.6C77.7571 21.6 78.5705 21.8933 79.1305 22.48C79.6905 23.04 79.9705 23.7467 79.9705 24.6C79.9705 25.6667 79.6505 26.52 79.0105 27.16C78.3705 27.8 77.4771 28.12 76.3305 28.12H76.2905ZM74.1705 35.56L71.3305 34.8V32.12L78.6505 31.24H78.7305L79.8505 32.04V51.28L82.5305 51.6V54H71.3705V51.6L74.1705 51.24V35.56ZM87.7177 24.76L84.7577 24.24V22.08L92.1577 21.2H92.2377L93.3177 21.96V51.28L96.2377 51.6V54H84.9177V51.6L87.7177 51.24V24.76ZM101.311 24.76L98.3514 24.24V22.08L105.751 21.2H105.831L106.911 21.96V51.28L109.831 51.6V54H98.5114V51.6L101.311 51.24V24.76ZM117.025 50.72C117.238 51.04 117.718 51.3467 118.465 51.64C119.238 51.9067 120.012 52.04 120.785 52.04C122.038 52.04 122.972 51.7867 123.585 51.28C124.225 50.7467 124.545 50.0533 124.545 49.2C124.545 48.32 124.158 47.6133 123.385 47.08C122.612 46.52 121.305 45.84 119.465 45.04L118.345 44.56C116.505 43.7867 115.132 42.8533 114.225 41.76C113.318 40.6667 112.865 39.2533 112.865 37.52C112.865 36.32 113.225 35.2533 113.945 34.32C114.665 33.36 115.678 32.6133 116.985 32.08C118.292 31.5467 119.798 31.28 121.505 31.28C122.758 31.28 123.825 31.36 124.705 31.52C125.612 31.68 126.558 31.8933 127.545 32.16C128.078 32.3467 128.478 32.4533 128.745 32.48V37.72H125.585L124.665 34.68C124.505 34.4133 124.145 34.1733 123.585 33.96C123.025 33.7467 122.385 33.64 121.665 33.64C120.572 33.64 119.692 33.88 119.025 34.36C118.385 34.8133 118.065 35.4533 118.065 36.28C118.065 37.0267 118.292 37.6533 118.745 38.16C119.198 38.64 119.692 39.0133 120.225 39.28C120.758 39.5467 121.745 39.9867 123.185 40.6C124.625 41.2133 125.812 41.8 126.745 42.36C127.705 42.92 128.492 43.6533 129.105 44.56C129.745 45.44 130.065 46.52 130.065 47.8C130.065 49.7733 129.292 51.3733 127.745 52.6C126.198 53.8267 123.972 54.44 121.065 54.44C119.705 54.44 118.478 54.32 117.385 54.08C116.318 53.84 115.078 53.52 113.665 53.12L112.785 52.84V47.56H116.105L117.025 50.72Z" fill="#BDAE82"/>
</svg>
